<svg width="90" height="90" viewBox="0 0 90 90" fill="none" xmlns="http://www.w3.org/2000/svg">
<circle cx="45" cy="45" r="45" fill="black" fill-opacity="0.5"/>
<path d="M55.4495 45.5893L40.4342 55.5995C40.3276 55.6705 40.2037 55.7112 40.0757 55.7173C39.9477 55.7234 39.8205 55.6947 39.7075 55.6343C39.5945 55.5738 39.5001 55.4838 39.4342 55.3739C39.3684 55.264 39.3336 55.1383 39.3335 55.0102V34.9898C39.3336 34.8617 39.3684 34.736 39.4342 34.6261C39.5001 34.5162 39.5945 34.4262 39.7075 34.3657C39.8205 34.3053 39.9477 34.2765 40.0757 34.2827C40.2037 34.2888 40.3276 34.3295 40.4342 34.4005L55.4495 44.4107C55.5465 44.4753 55.626 44.563 55.6811 44.6658C55.7361 44.7686 55.7649 44.8834 55.7649 45C55.7649 45.1166 55.7361 45.2314 55.6811 45.3342C55.626 45.437 55.5465 45.5246 55.4495 45.5893Z" fill="white"/>
</svg>
