<svg width="90" height="90" viewBox="0 0 90 90" fill="none" xmlns="http://www.w3.org/2000/svg">
<g clip-path="url(#clip0_113_9)">
<path fill-rule="evenodd" clip-rule="evenodd" d="M68.9137 86.932L88.3028 86.9486L88.2871 68.6781L68.9137 86.932ZM88.2793 59.5987L88.2618 39.2147L37.6467 86.9052L59.2785 86.9237L88.2793 59.5987ZM88.2362 9.33694L88.254 30.1354L28.0115 86.8969L5.93989 86.8779L88.2362 9.33694ZM84.5113 3.75984L62.8794 3.74127L2.97003 60.189L2.98753 80.573L84.5113 3.75984ZM31.6123 3.71444L53.2442 3.733L2.96223 51.1096L2.94474 30.7256L31.6123 3.71444ZM21.9772 3.70617L2.92154 3.68981L2.93695 21.6462L21.9772 3.70617Z" fill="#B50909"/>
</g>
<defs>
<clipPath id="clip0_113_9">
<rect width="90" height="90" fill="white"/>
</clipPath>
</defs>
</svg>
